
        <svg xmlns="http://www.w3.org/2000/svg" xmlns:xlink="http://www.w3.org/1999/xlink" version="1.1" width="3181.8181818181824" height="1595.5047321775185" viewBox="0 0 3181.8181818181824 1595.5047321775185">
			
			<g transform="scale(9.090909090909092) translate(10, 10)">
				<defs id="SvgjsDefs1379"/><g id="SvgjsG1380" featureKey="rZF8Vg-0" transform="matrix(1.4061931849661669,0,0,1.4061931849661669,95.00257924657438,-0.0012074155272033963)" fill="#fff"><g xmlns="http://www.w3.org/2000/svg"><path d="M54.658,37.416c0.106-0.21,0.207-0.433,0.248-0.658c0.115-0.611-0.832-0.675-1.243-0.662   c-0.271,0.01-0.447,1.162-0.544,1.164c0.264-0.006,0.842,0.016,1.104,0.244c-0.125,0.23-0.26,0.488-0.289,0.734   c-0.035,0.3,0.432,0.416,0.801,0.551c-0.108,0.169-0.191,0.361-0.27,0.54c-0.095,0.222-0.201,0.43-0.18,0.673   c0.008,0.09,0.045,0.162,0.094,0.229c-0.248,0.01-0.488-0.027-0.654-0.108c-0.077-0.038-0.64,1.116-0.543,1.163   c0.642,0.322,1.479,0.003,1.804-0.601c0.142-0.261,0.321-0.572,0.364-0.872c0.018-0.121-0.086-0.292-0.21-0.452   c0.015-0.015,0.028-0.028,0.043-0.048c0.216-0.313,0.358-0.688,0.485-1.045C55.893,37.635,55.033,37.64,54.658,37.416z    M49.591,36.691c-0.335-0.052-0.652,0.18-0.703,0.516c-0.054,0.336,0.177,0.652,0.515,0.705c0.335,0.052,0.651-0.18,0.704-0.516   C50.159,37.06,49.929,36.744,49.591,36.691z M98.299,30.752c-0.291,0.009-0.582,0.042-0.871,0.077   c0.207-0.216,0.398-0.446,0.555-0.663c0.648-0.887,1.338-1.944,1.475-3.062c0.078-0.631-3.697,1.492-3.943,1.626   c-3.297,1.818-6.598,3.706-10.063,5.192c-3.913,1.677-8.145,2.779-12.306,3.742c2.62-1.26,5.175-3.159,7.296-4.783   c0.776-0.596,1.343-1.215,1.729-2.107c0.488-1.128-0.736-3.207-1.721-2.228c2.29-2.276,5.619-2.215,6.833-5.518   c0.255-0.689-0.118-1.505-0.374-2.121c-0.104-0.251-0.209-0.361-0.295-0.401c0.005-0.002,0.007-0.004,0.012-0.007   c0.352-0.25,0.744-0.45,1.121-0.66c1.189-0.663,3.18-1.289,3.93-2.504c0.436-0.711,0.678-1.262-0.204-1.673   c-0.44-0.205-0.946-0.311-1.399-0.487c-0.499-0.193-0.982,0.276-0.523-0.175c0.813-0.798,1.836-1.418,2.744-2.1   c0.791-0.595,1.367-1.167,1.732-2.083c0.525-1.325-2.162-0.632-2.779-0.551c-0.383,0.05-0.76,0.082-1.145,0.079   C89.202,10.34,91.26,8.1,91.254,8.106c0.45-0.559,1.039-1.032,1.383-1.67c0.514-0.952,1.184-2.376,0.82-3.474   c-0.383-1.155-2.371,1.904-2.77,2.385c-0.623,0.754-0.68,1.013-0.326-0.12c0.443-1.417,1.094-2.865,1.047-4.369   c-0.088-2.876-2.527,2.402-2.566,2.466c-0.803,1.328-1.678,2.616-2.559,3.895c-0.446,0.648-0.102-0.48-0.074-0.824   c0.074-0.94,0.267-1.821,0.086-2.755c-0.21-1.083-0.75-1.027-1.177-0.236c-0.944,1.75-1.734,3.567-2.735,5.292   C80,12.806,77.02,14.945,73,17.285c-3.316,1.929-6.758,3.64-10.044,5.623c-2.452,1.479-3.796,3.544-4.699,6.185   c-0.479,1.406-0.644,2.908-0.958,4.354c-0.556,2.549-5.396,0.438-6.788,0.131c-2.527-0.557-4.688,0.654-5.895,2.852   c0,0.002-0.002,0.004-0.003,0.006c-0.104,0.006-0.207,0.013-0.306,0.026c-0.101,0.016-0.177,0.151-0.242,0.32   c-0.198,0.296-0.393,0.625-0.58,0.979c-4.325-0.918-8.279,0.779-12.107,2.657c-3.339,1.64-6.35,3.825-9.746,5.374   c-3,1.37-6.205,2.325-9.463,2.827c-0.135,0.021-0.265,0.027-0.397,0.045c0.017-0.064,0.023-0.117,0.001-0.133   c-1.876-1.197-3.767-2.411-5.746-3.434c-1-0.517-1.683-0.248-2.175,0.736c-0.117,0.232-0.234,0.484-0.329,0.741   c-1.109-0.606-2.684-1.325-3.217-0.427c-1.345,2.266,2.062,3.998,3.585,5.245c0.118,0.097,0.232,0.198,0.348,0.296   c-0.448,0.069-0.903,0.114-1.334,0.195c-1.001,0.191-1.247,0.576-1.609,1.449c-0.749,1.812,7.797,1.814,8.784,1.844   c0.698,0.02,1.396,0.031,2.093,0.064c0.206,0.011,0.237,0.055,0.31-0.029c-0.202,0.286-0.418,0.564-0.629,0.843   c-0.627,0.826-1.193,1.644-1.543,2.624c-0.344,0.961,2.925-0.468,3.271-0.596c1.004-0.371,1.998-0.773,2.978-1.205   c0.831-0.367,0.467,1.082,0.458,1.604c-0.042,2.344,2.657,0.752,3.842,0.265c2.182-0.898,4.472-2.258,6.816-2.662   c1.113-0.191-0.193,3.485,0.585,3.96c0.453,0.276,2.363-1.077,2.741-1.298c1.369-0.798,2.697-1.914,4.171-2.51   c1.234-0.497,0.443,3.468,1.336,3.518c1.833,0.099,2.681-4.601,4.615-3.771c2.983,1.28,3.478-1.521,4.968-3.367   c1.521-1.885,4.851-2.066,7.163-1.757c1.136,0.81,2.374,1.388,3.993,1.634c4.485,0.683,8.316-0.01,12.453-1.832   c3.248-1.432,6.408-3.402,8.966-5.872c2.634-2.544,6.477-3.874,9.837-5.153c1.35-0.512,9.512-2.194,8.518-5.193   C98.588,33.229,101.092,30.671,98.299,30.752z M43.791,37.625c1.223-0.18,2.448,0.033,3.415,0.824   c0.743,0.609,1.282,1.578,1.417,2.52c-0.037,0.076-0.055,0.146-0.061,0.211c-0.23,0.363-1.092,0.766-1.534,1.081   c-0.727,0.522-2.04,1.936-2.272,3.212C42.092,44.078,42.205,39.897,43.791,37.625z M48.644,41.655   c0.137,0.598,0.294,1.217,0.305,1.815c0.018,0.896-1.361,1.068-2.047,1.016c-0.405-0.031-0.83-0.17-1.195-0.365   c0.624-0.754,1.854-1.408,2.394-1.807C48.325,42.148,48.5,41.914,48.644,41.655z M5.297,46.169   c0.754,0.352,1.472,0.795,2.188,1.216c0.735,0.436,1.463,0.88,2.188,1.331c-1.788-0.134-3.433-0.712-5.183-1.604   c-0.112-0.057-0.271-0.147-0.455-0.252C3.56,46.12,4.497,45.797,5.297,46.169z M48.279,50.176c-2.38,0.973-2.701,4.453-5.087,5.045   c-0.619,0.152-1.782-0.87-2.235-0.586c-0.709,0.448-1.24,1.361-1.788,1.991c-0.439,0.505-1.51,1.997-2.256,1.956   c-0.341-0.019-0.398-2.215-0.439-2.498c-0.535-3.681-8.48,6.368-7.866,1.147c0.165-1.396,0.462-2.632-1.289-2.075   c-2.383,0.758-4.65,1.924-6.969,2.857c-2.136,0.855-2.856,0.641-2.728-1.785c0.074-1.412-3.324,0.628-4.091,0.912   c-0.804,0.297-1.751,0.748-2.621,0.775c-0.344,0.012-0.002-0.104,0.279-0.486c0.25-0.34,0.509-0.674,0.763-1.013   c0.395-0.526,1.065-1.394,1.118-2.092c0.018-0.235-8.676-0.706-9.641-0.894c-0.396-0.076-0.788-0.176-1.127-0.365   c0.022-0.006,0.04-0.01,0.063-0.016c0.393-0.093,0.801-0.143,1.2-0.203c1.06-0.162,1.452-0.205,1.844-1.191   c0.428-1.078-3.493-3.574-4.6-4.698c0.366,0.03,0.749,0.188,1.073,0.308c0.559,0.2,1.098,0.467,1.631,0.75   c0.062,0.111,0.138,0.221,0.245,0.322c-0.007-0.007,0.029-0.065,0.081-0.15c0.428,0.232,0.854,0.464,1.284,0.673   c2.586,1.253,5.025,1.203,7.785,0.71c7.027-1.252,12.428-5.287,18.673-8.352c3.572-1.754,7.355-3.143,11.361-2.294   c-1.296,3.144-1.625,7.278,2.302,8.085c0.11,0.023,0.635-1.082,0.543-1.164c-0.164-0.145-0.268-0.289-0.343-0.433   c0.507,0.208,1.063,0.278,1.605,0.218c0.119,0.057,0.238,0.117,0.357,0.164c1.351,0.529,2.243,1.742,3.241,2.75   c0.333,0.337,0.657,0.652,0.979,0.954C50.48,49.525,49.346,49.74,48.279,50.176z M96.719,33.854   c-0.016,0.008-0.037,0.03-0.057,0.053c-2.672,1.091-5.383,2.097-8.099,3.074c-0.334,0.119-0.336,1.09-0.542,1.164   c2.74-0.984,5.473-2,8.168-3.104c0.652,0.956-0.502,1.084-1.281,1.361c-1.012,0.36-2.031,0.7-3.047,1.054   c-2.766,0.965-5.504,2.01-8.148,3.272c-2.211,1.058-3.92,2.446-5.762,4.023c-2.852,2.44-6.302,4.261-9.786,5.606   c-4.569,1.764-11.122,2.334-15.019-1.16c-1.513-1.357-2.901-3.27-4.707-4.293c0.289-0.322,0.514-0.713,0.691-1.114   c0.535-1.208,0.27-2.233,0.021-3.438c0.572-2.309-2.212-3.911-4.292-3.922c1.614-2.125,4.284-1.928,6.726-1.301   c2.014,0.518,4.42,1.512,5.568-0.783c0.776-1.556,0.928-3.318,1.292-4.995c0.882-4.041,4.282-5.521,7.507-7.3   c2.773-1.529,5.569-3.016,8.283-4.651c1.875-1.131,4.1-2.393,5.425-4.192c1.79-2.429,3.277-5.038,4.617-7.737   c0.552-1.11,1.134-2.418,1.566-0.18c0.192,0.993-0.206,2.319-0.276,3.333c-0.006,0.082,0.074-0.04,0.072-0.037   c1.322-1.893,2.604-3.823,3.738-5.836c0.316-0.564,0.572-1.784,1.126-1.572c1.271,0.486-0.661,4.993-0.981,6.022   c0.006-0.021-0.039,0.149,0.017,0.079c0.851-1.037,1.706-2.07,2.581-3.083c0.807-0.933,0.844-0.041,0.824,0.834   c-0.025,1.064-1.858,2.748-2.492,3.664c-0.477,0.686-0.955,1.52-1.178,2.336c-0.269,0.978,2.392,0.276,2.861,0.224   c0.789-0.087,1.145,0.225,1.621-0.31c-0.498,0.561-1.195,0.989-1.795,1.431c-0.912,0.67-2.059,1.318-2.596,2.357   c-0.366,0.708-0.652,1.121,0.162,1.608c0.615,0.369,1.738,0.834,2.275,0.314c-0.702,0.681-1.803,1.106-2.646,1.554   c-0.646,0.342-3.651,1.617-3.177,2.947c0.321,0.898,1.316,2.311,0.342,3.08c-0.924,0.731-2.066,1.247-3.098,1.797   c-0.912,0.488-2.1,0.938-2.66,1.854c-0.116,0.191-0.578,0.908-0.428,1.153c0.341,0.555,0.939,0.813,1.425,1.23   c0.81,0.697-0.523,1.393-1.009,1.764c-2.681,2.054-6.223,4.581-9.521,5.491c-0.154,0.043-0.621,1.127-0.545,1.164   c0.139,0.069,1.163,0.764,1.141,0.777c-0.762,0.486-1.66,0.843-2.5,1.186c-0.337,0.137-0.327,1.076-0.543,1.164   c1.219-0.496,3.72-1.677,3.695-2.918c6.009-1.406,11.806-3.236,17.305-6.088c2.898-1.503,5.941-3.907,9.072-4.81   c0.98-0.283-1.227,2.108-1.494,2.322c-0.293,0.236-0.748,0.321-0.951,0.661c-0.057,0.1-0.125,0.214-0.189,0.334   c-3.391,1.622-6.853,3.11-10.313,4.578c-0.337,0.143-0.323,1.071-0.544,1.163c3.732-1.583,7.469-3.187,11.115-4.96   c0.602-0.001,1.271-0.173,1.834-0.19C100.111,31.848,97.32,33.559,96.719,33.854z"/></g></g><g id="SvgjsG1381" featureKey="6VBqdG-0" transform="matrix(2.4480711611949535,0,0,2.4480711611949535,-1.9584556448915376,89.6543038358761)" fill="#fff"><path d="M10.44 6 l0 2.04 l-3.72 0 l0 11.96 l-2.2 0 l0 -11.96 l-3.72 0 l0 -2.04 l9.64 0 z M18.240000000000002 9.44 c0.22 0 0.42 0 0.62 0.04 l0 2.06 c-0.2 -0.04 -0.4 -0.04 -0.56 -0.04 c-1.96 0 -3.56 1.4 -3.8 3.6 l0 4.9 l-2.16 0 l0 -10.4 l2.16 0 l0 2.66 c0.44 -1.54 1.78 -2.82 3.74 -2.82 z M25.34 9.42 c1.88 0 3.12 1.12 3.38 1.8 l0 -1.62 l2.16 0 l0 10.4 l-2.16 0 l0 -1.72 c-0.26 0.84 -1.5 1.92 -3.38 1.92 c-2.36 0 -5.18 -1.76 -5.18 -5.4 c0 -3.58 2.82 -5.38 5.18 -5.38 z M25.62 11.34 c-1.62 0 -3.36 1.16 -3.36 3.46 c0 2.32 1.74 3.48 3.36 3.48 s3.2 -1.14 3.2 -3.48 c0 -2.32 -1.58 -3.46 -3.2 -3.46 z M41.24 5.859999999999999 l2.16 0 l0 5.8 l0 8.34 l-2.16 0 l0 -1.72 c-0.26 0.84 -1.5 1.92 -3.38 1.92 c-2.36 0 -5.18 -1.76 -5.18 -5.4 c0 -3.58 2.82 -5.38 5.18 -5.38 c1.88 0 3.12 1.12 3.38 1.8 l0 -5.36 z M38.14 18.28 c1.62 0 3.2 -1.14 3.2 -3.48 c0 -2.32 -1.58 -3.46 -3.2 -3.46 s-3.36 1.16 -3.36 3.46 c0 2.32 1.74 3.48 3.36 3.48 z M50.58 9.42 c2.36 0 5.56 1.8 5.06 6.16 l-8.28 0 c0.32 1.86 1.8 2.78 3.48 2.78 c1.38 0 2.12 -0.36 2.88 -0.96 l1.22 1.16 c-0.92 1.04 -2.24 1.64 -4.16 1.64 c-2.64 0 -5.58 -1.8 -5.58 -5.38 c0 -3.6 3.02 -5.4 5.38 -5.4 z M50.58 11.28 c-1.34 0 -2.84 0.9 -3.2 2.72 l6.36 0 c-0.24 -1.82 -1.82 -2.72 -3.16 -2.72 z M68.8 11.4 l-2.2 0 l0 5.82 c0 0.56 0.2 1 0.84 1 c0.54 0 0.92 -0.1 1.36 -0.28 l0 1.82 c-0.44 0.22 -1.02 0.36 -1.92 0.36 c-1.3 0 -2.44 -0.52 -2.44 -2.82 l0 -5.9 l-1.44 0 l0 -1.8 l1.44 0 l0 -2.44 l2.16 0 l0 2.44 l2.2 0 l0 1.8 z M76.32 9.44 c2 0 3.96 1.3 3.96 4.54 l0 6.02 l-2.16 0 l0 -5.9 c0 -1.98 -0.94 -2.76 -2.28 -2.76 c-1.72 0 -2.84 1.6 -3.08 2.62 l0 6.04 l-2.16 0 l0 -14.14 l2.16 0 l0 5.94 c0.2 -0.64 1.4 -2.36 3.56 -2.36 z M87.26 9.42 c2.36 0 5.56 1.8 5.06 6.16 l-8.28 0 c0.32 1.86 1.8 2.78 3.48 2.78 c1.38 0 2.12 -0.36 2.88 -0.96 l1.22 1.16 c-0.92 1.04 -2.24 1.64 -4.16 1.64 c-2.64 0 -5.58 -1.8 -5.58 -5.38 c0 -3.6 3.02 -5.4 5.38 -5.4 z M87.26 11.28 c-1.34 0 -2.84 0.9 -3.2 2.72 l6.36 0 c-0.24 -1.82 -1.82 -2.72 -3.16 -2.72 z M105.72000000000001 9.42 c2.36 0 5.18 1.8 5.18 5.38 c0 3.64 -2.82 5.4 -5.18 5.4 c-1.88 0 -3.12 -1.08 -3.38 -1.92 l0 1.72 l-2.16 0 l0 -10.4 l0 -3.74 l2.16 0 l0 5.36 c0.26 -0.68 1.5 -1.8 3.38 -1.8 z M105.44000000000001 18.28 c1.62 0 3.36 -1.16 3.36 -3.48 c0 -2.3 -1.74 -3.46 -3.36 -3.46 s-3.2 1.14 -3.2 3.46 c0 2.34 1.58 3.48 3.2 3.48 z M114.86000000000001 5.859999999999999 l0 1.88 l-2.16 0 l0 -1.88 l2.16 0 z M114.86000000000001 9.6 l0 10.4 l-2.16 0 l0 -10.4 l2.16 0 z M122.96000000000001 9.44 c0.22 0 0.42 0 0.62 0.04 l0 2.06 c-0.2 -0.04 -0.4 -0.04 -0.56 -0.04 c-1.96 0 -3.56 1.4 -3.8 3.6 l0 4.9 l-2.16 0 l0 -10.4 l2.16 0 l0 2.66 c0.44 -1.54 1.78 -2.82 3.74 -2.82 z M133.44 5.859999999999999 l2.16 0 l0 5.8 l0 8.34 l-2.16 0 l0 -1.72 c-0.26 0.84 -1.5 1.92 -3.38 1.92 c-2.36 0 -5.18 -1.76 -5.18 -5.4 c0 -3.58 2.82 -5.38 5.18 -5.38 c1.88 0 3.12 1.12 3.38 1.8 l0 -5.36 z M130.34 18.28 c1.62 0 3.2 -1.14 3.2 -3.48 c0 -2.32 -1.58 -3.46 -3.2 -3.46 s-3.36 1.16 -3.36 3.46 c0 2.32 1.74 3.48 3.36 3.48 z"/></g><g id="SvgjsG1382" featureKey="rMoqOW-0" transform="matrix(0.44742232163650913,0,0,0.44742232163650913,84.7315468630352,146.42284775166203)" fill="#fff"><path d="M13.82 6 l-5.3 7.92 l0 6.08 l-2.62 0 l0 -6.08 l-5.3 -7.92 l2.96 0 l3.64 5.54 l3.64 -5.54 l2.98 0 z M38.048 5.800000000000001 c3.84 0 7.24 2.96 7.24 7.2 s-3.4 7.2 -7.24 7.2 s-7.24 -2.96 -7.24 -7.2 s3.4 -7.2 7.24 -7.2 z M38.048 17.740000000000002 c2.44 0 4.5 -1.98 4.5 -4.74 s-2.06 -4.74 -4.5 -4.74 c-2.46 0 -4.52 1.98 -4.52 4.74 s2.06 4.74 4.52 4.74 z M70.916 6 l2.62 0 l0 8.92 c0 3.4 -2.42 5.38 -5.32 5.38 c-2.92 0 -5.34 -1.98 -5.34 -5.38 l0 -8.92 l2.62 0 l0 8.92 c0 2.2 1.4 2.92 2.72 2.92 s2.7 -0.72 2.7 -2.92 l0 -8.92 z M102.26400000000001 20 l-2.78 0 l-3.12 -4.76 l-0.12 0 l-2.2 0 l0 4.76 l-2.62 0 l0 -14 l4.82 0 c3.14 0 5.12 1.92 5.12 4.7 c0 1.94 -0.96 3.38 -2.6 4.08 z M94.044 8.42 l0 4.56 l2.06 0 c1.58 0 2.64 -0.68 2.64 -2.28 c0 -1.58 -1.06 -2.28 -2.64 -2.28 l-2.06 0 z M148.52 12.26 c1.58 0.4 2.94 1.76 2.94 3.66 c0 2.54 -1.6 4.08 -5.1 4.08 l-5.32 0 l0 -14 l5.1 0 c2.88 0 4.32 1.62 4.32 3.48 c0 1.46 -0.92 2.36 -1.94 2.78 z M145.92000000000002 8.3 l-2.26 0 l0 3.18 l2.26 0 c1.32 0 1.94 -0.66 1.94 -1.6 c0 -1 -0.66 -1.58 -1.94 -1.58 z M146.24 17.7 c1.78 0 2.6 -0.74 2.6 -2.08 c0 -1.16 -0.82 -2.02 -2.68 -2.02 l-2.5 0 l0 4.1 l2.58 0 z M171.468 17.58 l6.1 0 l0 2.42 l-6.5 0 l-2.22 0 l0 -14 l2.62 0 l5.92 0 l0 2.42 l-5.92 0 l0 3.36 l4.5 0 l0 2.36 l-4.5 0 l0 3.44 z M199.676 5.76 c2.38 0 3.96 1.52 4.66 2.9 l-1.94 1.14 c-0.74 -1.1 -1.54 -1.72 -2.72 -1.72 c-1.12 0 -1.92 0.66 -1.92 1.56 c0 0.86 0.52 1.36 1.72 1.8 l0.96 0.36 c2.98 1.06 4.28 2.36 4.28 4.36 c0 2.72 -2.58 4.14 -4.96 4.14 c-2.5 0 -4.46 -1.48 -5.1 -3.44 l2.02 -1.06 c0.5 1.12 1.44 2.12 3.08 2.12 c1.24 0 2.24 -0.6 2.24 -1.72 c0 -1.14 -0.72 -1.64 -2.28 -2.22 l-0.9 -0.32 c-2.08 -0.76 -3.66 -1.8 -3.66 -4.12 c0 -2.2 2.02 -3.78 4.52 -3.78 z M230.904 6 l0 2.42 l-3.6 0 l0 11.58 l-2.62 0 l0 -11.58 l-3.58 0 l0 -2.42 l9.8 0 z M277.36 12.26 c1.58 0.4 2.94 1.76 2.94 3.66 c0 2.54 -1.6 4.08 -5.1 4.08 l-5.32 0 l0 -14 l5.1 0 c2.88 0 4.32 1.62 4.32 3.48 c0 1.46 -0.92 2.36 -1.94 2.78 z M274.76 8.3 l-2.26 0 l0 3.18 l2.26 0 c1.32 0 1.94 -0.66 1.94 -1.6 c0 -1 -0.66 -1.58 -1.94 -1.58 z M275.08 17.7 c1.78 0 2.6 -0.74 2.6 -2.08 c0 -1.16 -0.82 -2.02 -2.68 -2.02 l-2.5 0 l0 4.1 l2.58 0 z M300.308 6 l0 14 l-2.62 0 l0 -14 l2.62 0 z M329.036 20 l-2.78 0 l-3.12 -4.76 l-0.12 0 l-2.2 0 l0 4.76 l-2.62 0 l0 -14 l4.82 0 c3.14 0 5.12 1.92 5.12 4.7 c0 1.94 -0.96 3.38 -2.6 4.08 z M320.816 8.42 l0 4.56 l2.06 0 c1.58 0 2.64 -0.68 2.64 -2.28 c0 -1.58 -1.06 -2.28 -2.64 -2.28 l-2.06 0 z M351.12399999999997 6 c4 0 7.08 3.1 7.08 6.94 c0 3.96 -3.08 7.06 -7.08 7.06 l-4.8 0 l0 -14 l4.8 0 z M351.104 17.52 c2.84 0 4.44 -2.06 4.44 -4.58 c0 -2.4 -1.6 -4.46 -4.44 -4.46 l-2.16 0 l0 9.04 l2.16 0 z"/></g>
			</g>
		</svg>
	