
        <svg xmlns="http://www.w3.org/2000/svg" xmlns:xlink="http://www.w3.org/1999/xlink" version="1.1" width="3162.111047853983" 
        height="825.1056935083644" viewBox="0 0 3162.111047853983 825.1056935083644">
			
			<g transform="scale(8.10555239269914) translate(10, 10)">
				<defs id="SvgjsDefs1853"></defs><g id="SvgjsG1854" featureKey="HKaMnE-0" transform="matrix(1.169870268367203,0,0,1.169870268367203,3.2366261433447896,-2.526510905723427)" fill="#ffe98a"><path xmlns="http://www.w3.org/2000/svg" style="" d="M 3.5403531,8.1432196 C 4.5574595,9.8491796 6.2050884,10.95426 7.6503844,12.21136 6.0073793,11.65807 4.4558865,10.89851 2.8671362,10.2344 2.7327916,10.325 2.4964647,10.50772 2.36212,10.59828 c 1.6676181,1.67387 2.7079773,3.88389 4.5981886,5.32565 -0.1951259,0.330834 -0.3732548,0.646294 -0.5837461,0.960134 2.3334952,1.65877 4.0841955,3.93706 5.8041645,6.18135 1.996547,2.55023 4.824317,4.37993 6.54891,7.17601 1.574884,2.86965 3.94047,5.17893 5.516986,8.01622 0.806311,1.368008 1.569826,2.406381 2.769029,2.99474 0.915123,1.79815 2.304213,3.319005 2.489417,5.437245 -3.802581,1.73874 -7.910246,2.335725 -11.952826,3.364795 -2.796491,0.76746 -5.857186,0.66181 -8.5163406,1.92286 1.2383386,0.85733 2.7521646,0.75521 4.1528576,0.32294 1.123304,1.20842 2.838512,1.2949 4.350026,0.91688 -0.01469,0.29126 -0.02937,0.58252 -0.06105,0.88915 0.984606,0.0983 1.970843,0.16426 2.957081,0.23021 0.08403,0.26379 0.168067,0.52758 0.267467,0.80838 1.441623,0.36468 2.768211,1.08046 4.209834,1.44515 1.13826,0.26828 1.513965,1.50389 2.271763,2.23966 1.569851,1.36072 2.543173,3.29158 3.107885,5.28296 0.104975,0.49196 0.631613,0.66451 1.025536,0.89527 0.276307,0.95482 0.535615,1.92502 0.976995,2.82328 0.252645,-0.50638 0.506919,-1.04512 0.648742,-1.60575 1.040078,-4.86293 1.64571,-9.79643 2.733516,-14.64073 0.0189,-0.69661 1.045657,-0.79084 1.445157,-0.34892 1.776808,1.76049 4.461256,1.92828 6.485813,3.27947 0.752223,0.5246 1.487447,1.06456 2.292294,1.5107 7.435743,3.10025 13.83018,8.19202 21.374433,11.07063 1.211823,0.41799 2.043865,1.61173 3.348831,1.79108 1.337329,0.18098 2.30861,1.18707 3.410294,1.85907 0.03494,-0.37136 0.08526,-0.72571 0.1202,-1.09706 0.945446,0.87501 1.819641,1.8762 3.009571,2.40664 -0.245574,-0.92083 -0.654592,-1.81746 -1.114602,-2.66799 0.752223,0.5246 1.504446,1.04919 2.290663,1.54306 -0.58076,-2.31663 -2.207856,-4.15068 -3.438447,-6.12696 0.801582,0.51086 1.620162,1.00636 2.457369,1.45413 -0.719999,-2.12899 -2.475864,-3.6613 -3.884584,-5.32212 -3.160371,-3.59848 -6.798289,-6.73436 -10.264608,-10.05626 -2.617277,-2.14353 -5.810143,-3.48875 -8.980437,-4.63815 -2.66786,-1.1403 -5.318725,-2.29595 -7.876445,-3.69026 0.431563,-1.464199 0.816952,-2.390805 1.481188,-3.31578 0.278209,0.27358 0.539421,0.56253 0.834626,0.82075 -0.08866,-0.81559 -0.383593,-1.72269 -1.264584,-1.94555 -2.204997,-1.31163 -4.869318,0.69539 -6.984435,-0.79015 -0.884936,-0.4664 -1.406408,-1.38492 -1.983763,-2.16026 -1.636616,-2.28875 -3.220611,-4.65596 -4.505184,-7.1703 -1.687336,-2.89154 -3.818907,-5.65948 -6.765655,-7.38161 -3.271055,-2.04672 -6.365611,-4.37654 -9.794533,-6.187874 C 14.413178,12.893 11.809633,10.79883 8.9616034,9.0492196 9.2434844,10.21522 10.158199,11.05624 10.824485,11.99828 8.3556923,10.77069 6.1192847,9.1168096 3.5403531,8.1432196 z M 21.521358,20.559554 c 0.114048,-0.0975 0.263114,-0.15099 0.444643,-0.13169 1.139211,-0.0723 2.290524,-0.063 3.413418,0.18832 1.185988,0.28691 1.805225,1.51858 2.830083,2.10559 0.707756,0.44125 1.627639,0.53629 2.211522,1.18218 1.105355,1.56441 1.576244,3.48616 2.766586,4.97374 1.477386,1.90761 2.971769,3.79986 4.33181,5.78267 0.927497,1.231 1.688968,2.85918 3.357128,3.23529 2.094447,0.60849 4.190526,1.18462 6.323861,1.66529 -0.460822,1.09611 -0.93701,2.17522 -1.270015,3.31021 3.236377,1.76919 6.615261,3.286 9.836275,5.03819 1.489079,1.0322 3.399413,0.78785 4.890125,1.78768 1.050692,0.71809 1.894153,1.68529 2.858228,2.51257 0.554786,0.57953 1.344266,1.00867 1.547009,1.81379 0.316826,0.79464 -0.512767,1.48282 -0.771937,2.11865 0.260531,-0.0193 0.504064,-0.0232 0.764596,-0.0426 -0.01141,0.22653 -0.03984,0.46843 -0.0359,0.71197 -3.162949,0.63542 -6.075702,-1.11745 -8.907007,-2.23354 -2.869242,-1.32889 -5.943399,-2.13278 -8.946305,-3.06286 -1.446248,-0.91648 -3.171926,-1.11704 -4.836143,-1.24961 -0.08024,-0.583738 -0.124058,-1.236527 -0.859509,-1.29246 -0.735451,-0.05593 -2.601094,-0.21226 -3.755943,0.49197 -2.074998,1.25806 -3.787756,3.05349 -5.93795,4.1942 -1.549724,0.8141 -3.037985,1.69618 -4.512514,2.62762 -0.595305,-0.41936 -1.222973,-0.84034 -1.850642,-1.26132 0.654179,-3.00059 1.921612,-5.93782 4.185483,-8.04614 0.713196,-0.95361 1.411888,-1.917044 1.337852,-3.432621 -0.166718,-1.357608 -0.316394,-1.598817 -0.412273,-2.376979 -0.108918,-0.7355 -0.183843,-1.50172 -0.52256,-2.18392 -0.295886,-0.56648 -0.911453,-0.90573 -1.106988,-1.53204 -0.303682,-1.434381 -0.974404,-2.726503 -1.570396,-3.92388 -1.044573,-1.80467 -1.405323,-3.98043 -2.783311,-5.60725 -1.109979,-2.1162 -2.733813,-4.01498 -3.246584,-6.39307 -0.106104,-0.32878 -0.02355,-0.75553 0.227352,-0.96999 z m 24.44639,17.627452 c 0.133208,-0.12332 0.244077,0.04479 0.364724,0.306388 -0.195127,0.33083 -0.462324,0.33804 -0.606188,-0.0261 0.04494,-0.087 0.108678,-0.239178 0.153076,-0.280278 z" fill="#ffe98a" stroke="#ffe98a" stroke-width="0.0214807"></path></g><g id="SvgjsG1855" featureKey="J3GnXt-0" transform="matrix(1.1691442055490073,0,0,1.1691442055490073,109.0000005574914,33.00851818600868)" fill="#ffffff"><path d="M0 10.66 l0 -4.68 l15.3 0 l0 4.68 l-3.76 0 l0 -1.56 l2.2 0 l0 -1.56 l-12.18 0 l0 1.56 l5.32 0 l-0.02 9.34 l1.56 0 l0 -9.34 l1.56 0 l0 10.9 l-4.68 0 l0 -9.34 l-5.3 0 z M33.480000000000004 20 l-5.4 0 l-1.82 -3.14 l-3.5 0 l0 3.14 l-4.66 0 l0 -7.8 l11.44 0.02 c1.3 0 2.34 -1.06 2.34 -2.34 c0 -1.3 -1.04 -2.34 -2.34 -2.34 l-9.88 0 l0 1.56 l9.88 0 c0.42 0.02 0.74 0.36 0.74 0.78 s-0.32 0.76 -0.74 0.78 l-0.02 0 l-0.02 0 l-11.4 0 l0 -4.68 l11.44 0 c2.16 0 3.9 1.74 3.9 3.9 c0 2.14 -1.74 3.9 -3.9 3.9 l-9.88 -0.02 l0 4.68 l1.56 0 l0 -3.14 l5.94 0 c0.64 1.16 1.72 2.94 1.82 3.14 l1.8 0 c-0.16 -0.22 -1.08 -1.86 -1.82 -3.14 l1.8 0 c0.66 1.14 1.32 2.32 1.86 3.2 z M44.7 15.32 l0.9 -1.56 l2.72 4.68 l1.8 0 c-0.4 -0.64 -4.2 -7.14 -4.52 -7.78 l-3.92 6.8 l-1.46 2.54 l-5.4 0 c0.3 -0.5 2.32 -4.02 4.26 -7.4 c1.14 -1.98 2.4 -4.2 3.82 -6.62 l1.8 0 l-3.72 6.44 l-3.46 6.02 l1.8 0 c2.46 -4.34 4 -6.9 6.28 -10.9 c0.14 0.24 7.18 12.44 7.22 12.46 l-5.4 0 z M54.580000000000005 5.98 l8.6 0 c3.74 0.16 6.7 3.24 6.7 7 c0 3.78 -2.96 6.86 -6.7 7.02 l-8.6 0 l0 -10.9 l8.6 0 c2.02 0.16 3.62 1.82 3.62 3.9 c0 2 -1.54 3.72 -3.54 3.88 l-5.56 0 l0 -4.92 l1.56 0 l0 3.36 l3.92 -0.02 c1.18 -0.1 2.08 -1.12 2.08 -2.3 c0 -1.02 -0.64 -1.86 -1.54 -2.2 c-0.34 -0.14 -0.54 -0.14 -1.08 -0.14 l-6.5 0 l0 7.78 l7.04 0 c2.86 -0.16 5.14 -2.52 5.14 -5.46 c0 -2.9 -2.28 -5.28 -5.14 -5.44 l-8.6 0 l0 -1.56 z M87.18 5.98 l0 4.68 l-10.62 0 l0 1.56 l7.88 0 l0 1.56 l-9.44 0 l0 -4.68 l10.62 0 l0 -1.56 l-12.18 0 l0 10.9 l12.18 0 l0 -1.56 l-10.62 0 l0 -1.56 l12.18 0 l0 4.68 l-15.3 0 l0 -14.02 l15.3 0 z M99.98000000000002 10.66 l0 -4.68 l15.3 0 l0 4.68 l-3.76 0 l0 -1.56 l2.2 0 l0 -1.56 l-12.18 0 l0 1.56 l5.32 0 l-0.02 9.34 l1.56 0 l0 -9.34 l1.56 0 l0 10.9 l-4.68 0 l0 -9.34 l-5.3 0 z M128.70000000000002 10.66 l0 -4.68 l4.68 0 l0 14.02 l-4.68 0 l0 -4.66 l-9.06 0 l0 3.1 l1.56 0 l0 -1.56 l1.56 0 l0 3.12 l-4.68 0 l0 -6.24 l12.2 0 l0 4.68 l1.54 0 l0 -10.9 l-1.54 0 l0 4.68 l-9.08 0 l0 -4.68 l-1.56 0 l0 4.68 l-1.56 0 l0 -6.24 l4.68 0 l0 4.68 l5.94 0 z M151.48000000000002 5.98 l0 4.68 l-10.62 0 l0 1.56 l7.88 0 l0 1.56 l-9.44 0 l0 -4.68 l10.62 0 l0 -1.56 l-12.18 0 l0 10.9 l12.18 0 l0 -1.56 l-10.62 0 l0 -1.56 l12.18 0 l0 4.68 l-15.3 0 l0 -14.02 l15.3 0 z M178.02 13 c0.96 0.7 1.56 1.82 1.56 3.1 c0 2.16 -1.74 3.9 -3.9 3.9 l-11.4 0 l0 -7.8 l4.66 0 l0 0.02 l0 3.1 l6.74 0 c0.42 0.02 0.74 0.36 0.74 0.78 s-0.32 0.76 -0.74 0.78 l-8.28 0 l0 -3.12 l-1.56 0 l0 4.68 l9.84 0 l0.02 0 c1.28 0 2.32 -1.04 2.32 -2.34 c0 -1.22 -0.98 -2.26 -2.2 -2.32 l-5.32 0 l0 -1.56 l5.26 0 c1.26 -0.06 2.26 -1.06 2.26 -2.34 c0 -1.3 -1.04 -2.34 -2.32 -2.34 l-0.02 0 l-9.84 0 l0 1.56 l9.84 0 c0.42 0.02 0.74 0.36 0.74 0.78 s-0.32 0.76 -0.74 0.78 l-11.4 0 l0 -4.68 l11.4 0 c2.16 0 3.9 1.74 3.9 3.9 c0 1.28 -0.6 2.4 -1.56 3.12 z M187.06 20 l-4.68 0 l0 -14.02 l4.68 0 l0 10.9 l-1.56 0 l0 -9.34 l-1.56 0 l0 10.9 l3.12 0 l0 1.56 z M205.23999999999998 20 l-5.4 0 l-1.82 -3.14 l-3.5 0 l0 3.14 l-4.66 0 l0 -7.8 l11.44 0.02 c1.3 0 2.34 -1.06 2.34 -2.34 c0 -1.3 -1.04 -2.34 -2.34 -2.34 l-9.88 0 l0 1.56 l9.88 0 c0.42 0.02 0.74 0.36 0.74 0.78 s-0.32 0.76 -0.74 0.78 l-0.02 0 l-0.02 0 l-11.4 0 l0 -4.68 l11.44 0 c2.16 0 3.9 1.74 3.9 3.9 c0 2.14 -1.74 3.9 -3.9 3.9 l-9.88 -0.02 l0 4.68 l1.56 0 l0 -3.14 l5.94 0 c0.64 1.16 1.72 2.94 1.82 3.14 l1.8 0 c-0.16 -0.22 -1.08 -1.86 -1.82 -3.14 l1.8 0 c0.66 1.14 1.32 2.32 1.86 3.2 z M208.04 5.98 l8.6 0 c3.74 0.16 6.7 3.24 6.7 7 c0 3.78 -2.96 6.86 -6.7 7.02 l-8.6 0 l0 -10.9 l8.6 0 c2.02 0.16 3.62 1.82 3.62 3.9 c0 2 -1.54 3.72 -3.54 3.88 l-5.56 0 l0 -4.92 l1.56 0 l0 3.36 l3.92 -0.02 c1.18 -0.1 2.08 -1.12 2.08 -2.3 c0 -1.02 -0.64 -1.86 -1.54 -2.2 c-0.34 -0.14 -0.54 -0.14 -1.08 -0.14 l-6.5 0 l0 7.78 l7.04 0 c2.86 -0.16 5.14 -2.52 5.14 -5.46 c0 -2.9 -2.28 -5.28 -5.14 -5.44 l-8.6 0 l0 -1.56 z"></path></g>
			</g>
		</svg>
	